<?xml version="1.0"?>
<svg xmlns="http://www.w3.org/2000/svg" xmlns:xlink="http://www.w3.org/1999/xlink" version="1.1" id="Capa_1" x="0px" y="0px" width="512px" height="512px" viewBox="0 0 514.501 514.501" style="enable-background:new 0 0 514.501 514.501;" xml:space="preserve"><g><g>
	<g>
		<path d="M95.893,405.842c5.279,0,9.343,4.274,9.075,9.553l-2.248,44.198c-0.487,9.639,2.831,18.714,9.343,25.57    c6.512,6.837,15.405,10.604,25.054,10.604h179.688c5.278,0,12.853,2.773,17.299,5.633c12.852,8.252,28.247,13.101,44.762,13.101    c45.805,0,83.079-37.274,83.079-83.079c0-23.056-9.457-43.883-24.671-58.943c-3.759-3.72-8.138-10.5-9.343-15.645    c-2.238-9.591-5.021-21.448-8.473-36.137c-11.188-47.545-48.1-70.342-72.952-80.573c-4.887-2.008-5.823-6.283-2.257-10.175    c22.434-24.432,36.204-56.925,36.204-92.641C380.454,61.592,318.861,0,243.146,0C167.43,0,105.838,61.592,105.838,137.308    c0,35.438,13.55,67.722,35.678,92.096c3.547,3.911,2.582,8.167-2.324,10.127c-24.853,9.944-62.998,32.742-74.387,81.166    c-5.087,21.631-8.73,37.188-11.322,48.357c-2.237,9.62-0.392,18.791,5.202,25.81c5.604,7.058,14.152,10.968,24.079,10.968h13.129    V405.842z M443.125,431.432c0,35.429-28.831,64.27-64.27,64.27s-64.27-28.841-64.27-64.27c0-35.448,28.831-64.27,64.27-64.27    S443.125,395.983,443.125,431.432z M243.136,14.354c67.807,0,122.964,55.175,122.964,122.964c0,2.716-0.115,5.394-0.325,8.042    c-0.345,4.437-5.135,7.793-10.347,6.904c-38.021-6.521-59.097-35.85-68.726-54.229c-3.624-6.914-8.281-10.643-13.837-11.054    c-5.642-0.392-10.854,2.668-15.548,9.094c-30.705,42.018-95.147,53.378-126.474,56.448c-5.259,0.516-10.031-2.783-10.366-7.201    c-0.201-2.649-0.315-5.317-0.315-8.013C120.172,69.529,175.329,14.354,243.136,14.354z M133.617,166.76    c34.033-3.366,101.449-15.874,135.3-62.204c0.487-0.669,0.937-1.205,1.319-1.635c0.774-0.86,2.181-0.803,2.782,0.105    c0.307,0.459,0.642,1.023,0.995,1.702c10.939,20.875,34.912,54.2,78.68,61.716c5.202,0.899,8.463,5.345,6.771,10.347    c-6.397,18.867-17.193,35.716-31.25,49.237c-3.806,3.663-7.306,6.321-7.507,6.292c-0.201-0.038-0.401,0.105-0.439,0.316    c-0.039,0.21-3.386,3.107-7.736,6.101c-19.766,13.589-43.662,21.573-69.404,21.573c-54.009,0-99.88-35.047-116.337-83.576    C125.106,171.714,128.367,167.277,133.617,166.76z M229.031,273.832c4.638,0.516,9.333,0.803,14.105,0.803    c4.026,0,7.994-0.22,11.915-0.603c5.259-0.516,7.803,2.716,5.737,7.574l-14.917,35.084c-2.065,4.858-5.422,4.858-7.487,0    l-15.071-35.429C221.248,276.414,223.782,273.248,229.031,273.832z M222.739,339.038h-55.5c-5.288,0-9.467-1.778-11.762-4.973    c-2.295-3.213-2.629-7.735-0.937-12.736l18.657-55.138c1.692-5.001,6.789-6.924,11.551-4.647c2.783,1.329,5.623,2.562,8.511,3.7    c4.915,1.941,10.681,7.125,12.756,11.992l22.548,52.995C230.619,335.089,228.018,339.038,222.739,339.038z M290.805,266.028    c3.031-1.118,6.015-2.323,8.94-3.643c4.819-2.171,9.945-0.182,11.638,4.819l18.312,54.124c1.692,5.001,1.357,9.523-0.938,12.736    c-2.295,3.194-6.474,4.973-11.762,4.973h-55.501c-5.278,0-7.889-3.939-5.813-8.797l22.29-52.402    C280.047,272.971,285.851,267.855,290.805,266.028z M78.757,323.996c11.188-47.573,52.794-67.08,73.43-73.966    c5.011-1.673,9.716-2.247,10.385-1.74s-0.144,4.954-1.836,9.955l-19.785,58.475c-3.213,9.505-2.189,18.637,2.869,25.685    c5.068,7.058,13.378,10.959,23.419,10.959h63.026h23.715h63.026c10.03,0,18.35-3.901,23.418-10.959    c5.068-7.038,6.092-16.17,2.869-25.685l-19.374-57.261c-1.692-5.001-2.257-9.629-1.281-10.365    c0.976-0.746,5.919-0.277,10.911,1.453c21.085,7.306,61.009,26.985,71.938,73.431c1.97,8.386,3.71,15.816,5.269,22.453    c1.205,5.145-1.702,7.496-6.731,5.871c-7.938-2.554-16.391-3.949-25.169-3.949c-45.804,0-83.079,37.255-83.079,83.079    c0,15.366,4.246,29.72,11.562,42.065c2.696,4.542,1.052,7.937-4.227,7.937H137.107c-5.67,0-10.882-2.189-14.659-6.148    c-3.768-3.979-5.689-9.305-5.403-14.966l3.012-59.269c0.268-5.278-3.796-9.553-9.075-9.553H82.744    c-5.451,0-10.012-1.96-12.842-5.527c-2.812-3.547-3.691-8.386-2.467-13.654C70.036,361.146,73.679,345.607,78.757,323.996z" data-original="#000000" class="active-path" data-old_color="#ffffff" fill="#ffffff"/>
		<path d="M369.457,412.449c0,5.279-4.284,9.562-9.562,9.562h-14.736c-5.183,0-9.409,4.218-9.409,9.41    c0,5.173,4.217,9.391,9.409,9.391h14.736c5.278,0,9.562,4.283,9.562,9.562v14.735c0,5.192,4.217,9.409,9.399,9.409    c5.184,0,9.4-4.217,9.4-9.409v-14.727c0-5.278,4.284-9.562,9.562-9.562h14.735c5.184,0,9.41-4.217,9.41-9.39    c0-5.192-4.218-9.41-9.41-9.41h-14.735c-5.278,0-9.562-4.284-9.562-9.562v-14.735c0-5.174-4.217-9.391-9.4-9.391    c-5.183,0-9.399,4.217-9.399,9.391V412.449z" data-original="#000000" class="active-path" data-old_color="#ffffff" fill="#ffffff"/>
	</g>
</g></g> </svg>
